# xmcd
#
# Track frame offsets:
#	150
#	19480
#	43976
#	74279
#	91260
#	103792
#	121541
#	134713
#	156496
#	175983
#	197439
#	217462
#	230338
#
# Disc length: 3448 seconds
#
# Revision: 1
# Processed by: cddbd v1.5.2PL0 Copyright (c) Steve Scherf et al.
# Submitted via: audiograbber 1.83.01
#
DISCID=c30d760d
DTITLE=Canned Heat - Friends in the Can
DYEAR=2003
DGENRE=
TTITLE0=Same Old Games
TTITLE1=Bad Trouble
TTITLE2=Black Coffee
TTITLE3=Getaway
TTITLE4=It Don't Matter
TTITLE5=Let´s Work Together
TTITLE6=1,2,3 Here We Go Again
TTITLE7=That Fat Cat
TTITLE8=Home To You
TTITLE9=Never Get Out of These Blues Alive
TTITLE10=Little Wheel
TTITLE11=Let´s Work Together (Bonus)
TTITLE12=Getaway (Bonus)
EXTD=
EXTT0=
EXTT1=
EXTT2=
EXTT3=
EXTT4=
EXTT5=
EXTT6=
EXTT7=
EXTT8=
EXTT9=
EXTT10=
EXTT11=
EXTT12=
PLAYORDER=
